<svg width="70" height="70" viewBox="0 0 70 70" fill="none" xmlns="http://www.w3.org/2000/svg">
<g filter="url(#filter0_d_12_76)">
<path d="M15.3586 17.8773C14.7895 18.0105 15.1527 17.9863 14.6805 18.0469C12.6582 18.4828 14.1598 18.8703 15.3586 17.8773ZM50.9238 18.6887C51.0691 18.5918 51.5777 18.0953 49.9914 17.6109C50.0883 18.1074 49.6645 18.059 49.6645 18.3375C50.8391 19.4031 51.3234 21.2559 52.825 21.6434C53.1156 20.3113 51.493 19.6574 50.9238 18.6887ZM14.2809 17.4898C14.4625 18.5676 15.2738 16.3516 15.2859 15.5645C14.9711 15.7461 14.6562 15.9277 14.3293 16.073C15.0922 16.4605 14.4262 16.8723 13.6027 17.4898C11.9316 19.5727 15.1648 15.8672 14.2809 17.4898ZM35 4C17.8773 4 4 17.8773 4 35C4 52.1105 17.8773 66 35 66C52.1227 66 66 52.1105 66 35C66 17.8773 52.1227 4 35 4ZM35.8234 14.3898L35.9688 14.4383C35.3875 15.1891 38.9961 17.3809 36.4047 17.5625C33.9828 18.2527 37.4219 16.9328 35.5449 17.1629C36.5379 15.7824 34.7578 15.7582 35.8234 14.3898ZM21.1227 16.3758C20.2508 15.6492 17.5141 17.3687 18.4707 16.957C20.8441 16.0246 18.6281 17.0539 19.1852 18.168C18.6766 19.2215 19.0156 17.1266 17.7562 18.3738C16.848 18.5797 14.6199 20.6383 14.8984 20.0086C14.8258 20.9895 12.2465 22.152 11.8953 23.7867C11.0477 26.0512 11.6895 23.702 11.532 22.818C10.3211 21.2801 8.11719 25.4215 8.77109 27.0562C9.87305 25.1187 9.78828 26.8504 8.98906 27.7102C9.80039 29.1996 8.25039 31.1371 9.78828 32.2391C10.4664 32.3965 11.8227 29.9625 11.2293 32.4934C11.641 30.3016 12.3676 33.0141 13.5422 32.4086C13.6148 33.559 14.3293 33.0262 14.4867 34.4187C16.4484 34.2734 18.2406 37.5914 15.9035 38.2211C16.2547 38.1242 16.9449 38.7418 17.7441 38.2695C19.1004 39.3473 22.6727 39.4805 22.7695 42.1445C20.3113 43.3191 22.1641 46.5402 20.0328 47.6906C17.5867 47.3273 19.1973 50.7059 18.168 50.3184C18.5797 52.7523 15.6977 50.0035 16.8117 51.3477C18.8582 52.607 15.9156 52.3527 16.8359 53.273C15.8066 53.0551 17.4777 55.1863 17.7562 55.9734C19.2336 58.3711 16.4848 55.4406 15.6734 54.6414C14.8984 53.0914 13.0699 50.1246 12.5613 47.6906C12.2707 44.1547 9.53398 41.7812 8.9043 38.3301C8.27461 36.4047 10.6359 33.3168 9.36445 32.2391C8.2625 31.3793 8.71055 28.4367 8.05664 26.8867C9.69141 19.8027 14.8863 13.8328 21.1227 10.2969C20.4809 10.7691 24.7918 9.07383 24.2953 9.48555C24.1621 9.78828 26.8141 8.33516 28.4125 8.11719C28.243 8.14141 24.259 9.57031 25.3609 9.37656C23.6535 10.2121 25.1914 9.73984 26.0391 9.31602C24.3438 10.5633 23.0359 10.2121 21.1105 11.3141C19.173 11.8227 19.5727 13.8328 18.1922 14.8379C19.0035 14.9832 21.0379 12.743 22.2246 11.9559C24.9492 10.6359 20.8441 14.3535 23.4355 12.7551C22.5637 13.5664 22.7453 14.8621 22.2125 15.2254C21.9461 15.1527 23.266 15.8551 21.1227 16.3758ZM25.3609 10.8055C25.0824 11.1809 24.6949 11.9922 24.4648 11.4957C24.15 11.6531 24.0289 12.3313 23.4355 11.7863C23.7867 11.532 24.15 10.9266 23.4598 11.302C23.7746 10.9629 26.584 10.0062 26.4266 9.64297C26.923 9.32812 26.8746 9.1707 26.3055 9.36445C26.0148 9.26758 26.9957 8.44414 28.3035 8.33516C28.4852 8.33516 28.5578 8.45625 28.2309 8.41992C26.257 9.02539 27.1047 8.85586 28.4367 8.41992C27.9281 8.71055 27.577 8.79531 27.4922 8.92852C28.8242 8.44414 27.4195 9.27969 27.7223 9.21914C27.3469 9.41289 27.7828 9.47344 27.0562 9.75195C27.1895 9.64297 25.8695 10.5391 26.6566 10.2727C25.8938 10.9992 25.5547 11.0113 25.3609 10.8055ZM26.5234 12.5371C26.5477 11.3746 28.2188 10.6359 28.0129 10.5754C30.0715 9.60664 27.2984 10.6117 28.9211 9.73984C29.5266 9.6793 30.8102 7.7418 32.5902 7.6207C34.552 7.02734 33.6437 7.65703 35.0969 7.1L34.8062 7.34219C34.552 7.37852 34.8668 7.82656 33.9465 8.50469C33.8496 9.5582 32.1906 9.07383 33.0141 10.2C32.4813 9.43711 31.682 10.1758 32.6871 10.2484C31.6094 11.0719 29.1027 11.2172 27.9039 12.5855C27.1289 13.6996 26.4145 13.3484 26.5234 12.5371ZM35.1332 16.4121C34.3098 18.398 33.5105 16.1215 34.9637 15.7582C35.327 15.952 35.4723 16.0125 35.1332 16.4121ZM32.0332 12.4402C31.791 11.5441 31.9848 12.0164 33.4258 11.5926C34.4188 12.307 32.5418 12.7793 32.0332 12.4402ZM54.5809 47.9813C53.4426 46.0195 55.9613 44.2031 56.809 42.5562C56.7 44.4816 56.4578 46.3828 54.5809 47.9813ZM58.8676 25.5668C57.6324 25.6637 56.5184 25.9543 55.4043 25.252C52.8371 22.4426 55.8766 28.4246 56.7242 25.9785C59.7758 27.141 56.6758 32.1543 54.7504 31.6336C53.6727 29.3086 52.3406 26.7535 49.9914 25.6152C51.7957 27.6133 52.6918 30.0715 54.6293 31.8758C54.7625 34.3945 57.3176 30.9555 57.1602 32.9051C57.4023 36.2594 53.3699 38.2695 54.0723 41.6359C55.5738 44.6996 51.1781 45.2566 51.6746 48.0055C49.9066 49.9793 48.0176 52.6434 44.8449 52.2195C44.8449 50.5484 43.9973 49.1316 43.8035 47.4121C42.084 45.2324 45.6199 42.8953 43.4281 40.6187C40.8973 40.0496 43.9488 36.5621 41.3453 36.8891C39.7832 35.327 37.4945 36.8406 35.2543 36.8527C32.4449 37.1191 29.5508 33.4016 30.798 30.7738C29.8051 28.0371 33.9465 27.2379 34.0555 24.8281C36.0414 23.1691 38.8629 23.375 41.5512 22.9875C41.3574 24.9129 43.3918 24.925 44.9297 25.5668C45.7895 23.484 48.4656 25.9059 50.2941 24.5859C50.9238 21.5102 48.5141 23.3629 47.1336 22.382C45.4625 19.9359 50.7059 21.1227 50.1609 19.8391C48.1266 19.827 49.277 17.3324 47.8359 18.725C49.1316 18.9551 47.6059 19.9723 47.6422 18.8098C45.6805 18.2406 47.5695 21.0379 46.5766 21.3043C45.0629 20.6746 45.7773 22.0187 45.9348 22.2246C45.2809 23.6414 44.4816 20.1418 42.6289 20.2387C40.7883 18.5555 41.9023 21.0016 43.5008 21.4012C43.1617 21.498 43.6945 22.8906 43.2707 22.2973C41.9508 20.4809 39.4441 19.2699 37.9547 21.498C37.7973 23.5809 33.559 24.1742 34.2371 21.7402C33.2441 19.2215 37.3129 21.6676 36.9375 19.6574C34.3219 17.9258 37.652 18.4828 38.5359 16.8602C40.5461 16.9207 38.6207 15.2133 39.5652 14.7168C39.4684 16.5695 41.1031 16.2184 42.3988 15.8672C42.084 14.8016 43.1738 14.8379 42.5078 13.9539C45.5109 12.7551 40.2191 14.5109 41.2848 11.8832C39.9891 10.9871 40.7398 13.857 41.2848 14.1598C41.3211 15.0437 40.5703 16.1336 39.541 14.2809C38.0395 15.2617 38.1969 13.2879 38.1 13.4938C37.9305 12.7309 39.2383 12.6945 39.2504 11.3625C39.1414 10.5148 39.1656 10.0668 39.7711 10.0184C39.8195 10.1395 42.2535 10.1758 43.1133 11.1809C40.7641 10.7086 42.7621 11.5684 43.8156 12.0527C42.6895 11.1687 44.2637 12.0527 43.3434 11.0477C43.7066 11.1203 42.3383 9.66719 43.743 10.9387C42.9801 10.0305 45.2324 10.2969 43.9004 9.61875C45.85 10.1637 44.6996 9.66719 43.5492 9.1707C40.3766 7.28164 49.1559 11.7258 45.5715 9.75195C47.8602 10.2484 40.6793 7.98398 43.9488 8.97695C42.7016 8.43203 43.9125 8.73477 45.0387 9.08594C43.0164 8.45625 39.9891 7.28164 40.1102 7.2332C40.8125 7.28164 41.5027 7.43906 42.1688 7.63281C44.2395 8.25039 41.5754 7.4875 42.1445 7.49961C49.2648 9.32812 55.5012 14.0992 59.2914 20.3355C60.1754 21.268 62.5852 27.4316 61.3258 24.6949C61.8949 26.8746 61.9797 29.2238 62.2824 31.452C61.6527 30.7496 60.9504 28.1582 60.3449 26.7172C60.0906 27.2742 59.8 25.9301 58.8676 25.5668Z" fill="#61D3C9"/>
</g>
<defs>
<filter id="filter0_d_12_76" x="0" y="0" width="70" height="70" filterUnits="userSpaceOnUse" color-interpolation-filters="sRGB">
<feFlood flood-opacity="0" result="BackgroundImageFix"/>
<feColorMatrix in="SourceAlpha" type="matrix" values="0 0 0 0 0 0 0 0 0 0 0 0 0 0 0 0 0 0 127 0" result="hardAlpha"/>
<feOffset/>
<feGaussianBlur stdDeviation="2"/>
<feComposite in2="hardAlpha" operator="out"/>
<feColorMatrix type="matrix" values="0 0 0 0 0 0 0 0 0 0 0 0 0 0 0 0 0 0 0.15 0"/>
<feBlend mode="normal" in2="BackgroundImageFix" result="effect1_dropShadow_12_76"/>
<feBlend mode="normal" in="SourceGraphic" in2="effect1_dropShadow_12_76" result="shape"/>
</filter>
</defs>
</svg>
