<svg width="77" height="66" viewBox="0 0 77 66" fill="none" xmlns="http://www.w3.org/2000/svg">
<path d="M51.8896 41.0959C51.8896 34.4036 57.3148 28.9784 64.0072 28.9784C70.6995 28.9784 76.1247 34.4036 76.1247 41.0959V58.1199H51.8896V41.0959Z" fill="#988BE7"/>
<path d="M0 41.0959C0 34.4036 5.42519 28.9784 12.1175 28.9784C18.8098 28.9784 24.235 34.4036 24.235 41.0959V58.1199H0V41.0959Z" fill="#988BE7"/>
<path d="M20.9641 41.9137C20.9641 32.4705 28.6193 24.8154 38.0624 24.8154C47.5056 24.8154 55.1608 32.4705 55.1608 41.9137V66H20.9641V41.9137Z" fill="#61D3C9"/>
<g filter="url(#filter0_d_120_448)">
<circle cx="38.0625" cy="15.5971" r="11.5971" fill="#FFDDBD"/>
</g>
<g filter="url(#filter1_d_120_448)">
<circle cx="63.7841" cy="23.0312" r="7.43405" fill="#FFDDBD"/>
</g>
<g filter="url(#filter2_d_120_448)">
<circle cx="12.3405" cy="23.0312" r="7.43405" fill="#FFDDBD"/>
</g>
<rect x="20.9641" y="61.2422" width="34.1966" height="4.75779" fill="#79F9ED"/>
<rect x="55.1606" y="54.4029" width="20.964" height="3.86571" fill="#D0CBF3"/>
<rect y="54.2542" width="20.964" height="3.86571" fill="#D0CBF3"/>
<defs>
<filter id="filter0_d_120_448" x="22.4653" y="0" width="31.1943" height="31.1942" filterUnits="userSpaceOnUse" color-interpolation-filters="sRGB">
<feFlood flood-opacity="0" result="BackgroundImageFix"/>
<feColorMatrix in="SourceAlpha" type="matrix" values="0 0 0 0 0 0 0 0 0 0 0 0 0 0 0 0 0 0 127 0" result="hardAlpha"/>
<feOffset/>
<feGaussianBlur stdDeviation="2"/>
<feComposite in2="hardAlpha" operator="out"/>
<feColorMatrix type="matrix" values="0 0 0 0 0 0 0 0 0 0 0 0 0 0 0 0 0 0 0.15 0"/>
<feBlend mode="normal" in2="BackgroundImageFix" result="effect1_dropShadow_120_448"/>
<feBlend mode="normal" in="SourceGraphic" in2="effect1_dropShadow_120_448" result="shape"/>
</filter>
<filter id="filter1_d_120_448" x="52.3501" y="11.5971" width="22.8682" height="22.8681" filterUnits="userSpaceOnUse" color-interpolation-filters="sRGB">
<feFlood flood-opacity="0" result="BackgroundImageFix"/>
<feColorMatrix in="SourceAlpha" type="matrix" values="0 0 0 0 0 0 0 0 0 0 0 0 0 0 0 0 0 0 127 0" result="hardAlpha"/>
<feOffset/>
<feGaussianBlur stdDeviation="2"/>
<feComposite in2="hardAlpha" operator="out"/>
<feColorMatrix type="matrix" values="0 0 0 0 0 0 0 0 0 0 0 0 0 0 0 0 0 0 0.15 0"/>
<feBlend mode="normal" in2="BackgroundImageFix" result="effect1_dropShadow_120_448"/>
<feBlend mode="normal" in="SourceGraphic" in2="effect1_dropShadow_120_448" result="shape"/>
</filter>
<filter id="filter2_d_120_448" x="0.906494" y="11.5971" width="22.8682" height="22.8681" filterUnits="userSpaceOnUse" color-interpolation-filters="sRGB">
<feFlood flood-opacity="0" result="BackgroundImageFix"/>
<feColorMatrix in="SourceAlpha" type="matrix" values="0 0 0 0 0 0 0 0 0 0 0 0 0 0 0 0 0 0 127 0" result="hardAlpha"/>
<feOffset/>
<feGaussianBlur stdDeviation="2"/>
<feComposite in2="hardAlpha" operator="out"/>
<feColorMatrix type="matrix" values="0 0 0 0 0 0 0 0 0 0 0 0 0 0 0 0 0 0 0.15 0"/>
<feBlend mode="normal" in2="BackgroundImageFix" result="effect1_dropShadow_120_448"/>
<feBlend mode="normal" in="SourceGraphic" in2="effect1_dropShadow_120_448" result="shape"/>
</filter>
</defs>
</svg>
