<svg width="67" height="74" viewBox="0 0 67 74" fill="none" xmlns="http://www.w3.org/2000/svg">
<g filter="url(#filter0_d_30_725)">
<rect x="35.3533" y="6" width="27.8456" height="55.4787" rx="2" transform="rotate(23.8424 35.3533 6)" fill="#61D3C9"/>
</g>
<path d="M43 51L38.2224 48.9376" stroke="#B7FAF4" stroke-width="2" stroke-linecap="square"/>
<path d="M38.1072 37.893L39.5289 39.3961C40.0199 39.9153 40.8812 39.7668 41.1701 39.1132L41.1813 39.0877C41.2806 38.863 41.2938 38.6096 41.2182 38.3758L40.2255 35.3058C40.1499 35.0721 40.1631 34.8186 40.2624 34.5939L41.3927 32.0362C41.681 31.3839 42.5399 31.2344 43.0317 31.7509L47.0757 35.999C47.5675 36.5155 48.4264 36.366 48.7147 35.7137L49.0631 34.9254C49.1924 34.6328 49.1739 34.2959 49.0133 34.0192L44.4495 26.1558C44.2864 25.8749 44.2711 25.5329 44.3999 25.2347C45.4571 22.7869 46.8538 18.4899 45.2842 17.7092C43.719 16.9307 41.6284 20.9771 40.6008 23.5158C40.4712 23.836 40.1922 24.0729 39.8533 24.1397L39.1254 24.2832" stroke="#B7FAF4" stroke-linecap="round"/>
<g filter="url(#filter1_d_30_725)">
<rect x="4" y="13.9564" width="35.3065" height="45.7493" rx="2" fill="#61D3C9"/>
</g>
<path d="M8.47559 51.252L34.8311 51.252" stroke="#B7FAF4" stroke-width="2" stroke-linecap="square"/>
<path d="M31.9982 33.4987V33.4934C31.9982 30.3864 30.6456 27.5962 28.4977 25.6774L28.4872 25.6687C28.4606 25.6401 28.431 25.6145 28.3988 25.5925L28.397 25.5917C26.4894 23.9166 24.0361 22.9951 21.4974 23C18.8446 23 16.4228 23.9852 14.5767 25.6109L14.5881 25.6013C14.5658 25.6182 14.5453 25.6372 14.5268 25.6582C13.417 26.6409 12.5287 27.8491 11.9207 29.2011C11.3126 30.5531 10.9988 32.0189 11 33.5013C11 36.6074 12.3509 39.3977 14.4971 41.3174L14.5076 41.3261C14.5354 41.3576 14.5665 41.3861 14.6003 41.411L14.6021 41.4118C16.5093 43.0845 18.9607 44.0046 21.4974 44C24.0459 44.0039 26.5078 43.0752 28.4189 41.3891L28.4075 41.3987C29.5366 40.4171 30.4416 39.2043 31.0614 37.8426C31.6812 36.4808 32.0013 35.0019 32 33.5057V33.4996L31.9982 33.4987ZM28.0943 40.3278C27.5742 39.907 27.0149 39.5373 26.4241 39.2236L26.3672 39.1956C26.9035 37.6495 27.2264 35.8672 27.257 34.0132V33.9992H30.9851C30.8594 36.3978 29.827 38.659 28.0969 40.3251L28.0943 40.3278ZM21.9996 39.0109C23.1221 39.0713 24.1712 39.3181 25.1388 39.7197L25.0758 39.6969C24.3006 41.4643 23.2096 42.6788 21.9996 42.9457V39.0109ZM21.9996 38.01V33.9992H26.2587C26.2249 35.6601 25.937 37.306 25.4048 38.8797L25.4389 38.7651C24.3527 38.3186 23.1973 38.0634 22.0241 38.0109L22.0005 38.01H21.9996ZM21.9996 32.9982V28.9874C23.2045 28.9324 24.3907 28.6686 25.5054 28.2078L25.4363 28.2332C25.9219 29.6497 26.2202 31.2824 26.2587 32.9798V32.9982H21.9996ZM21.9996 27.9864V24.0535C23.2096 24.3203 24.3006 25.5295 25.0758 27.3022C24.1712 27.6784 23.1221 27.9243 22.025 27.9856L21.9996 27.9864ZM24.4966 24.4866C25.5276 24.8305 26.4918 25.349 27.3471 26.0195L27.327 26.0038C26.9394 26.3083 26.5046 26.5952 26.0461 26.8446L25.9971 26.8691C25.6267 25.9948 25.1173 25.1861 24.4887 24.4743L24.4966 24.484V24.4866ZM20.9969 24.0561V27.9864C19.9177 27.9314 18.8559 27.6917 17.8577 27.2777L17.9207 27.3005C18.6994 25.533 19.7886 24.3195 20.9987 24.0526L20.9969 24.0561ZM17.0003 26.8665C16.526 26.6113 16.0741 26.3166 15.6494 25.9854L15.6704 26.0011C16.5008 25.3503 17.4348 24.8439 18.4334 24.5032L18.4999 24.4831C17.8878 25.1756 17.389 25.9605 17.0221 26.8087L17.0003 26.8665ZM20.9987 28.9865V32.9973H16.7395C16.778 31.2815 17.0764 29.6489 17.5961 28.1177L17.562 28.2323C18.6478 28.6781 19.8025 28.9329 20.975 28.9856L20.9987 28.9865ZM20.9987 33.9983V38.0091C19.7937 38.0641 18.6075 38.3279 17.4928 38.7887L17.562 38.7633C17.0764 37.3476 16.778 35.7141 16.7395 34.0167V33.9983H20.9987ZM20.9987 39.0101V42.943C19.7886 42.6762 18.6976 41.467 17.9224 39.6943C18.8271 39.3181 19.8761 39.0731 20.9733 39.0118L20.9987 39.0101ZM18.5051 42.5099C17.4744 42.167 16.5102 41.6497 15.6546 40.9805L15.6756 40.9962C16.0632 40.6918 16.498 40.4048 16.9565 40.1554L17.0055 40.1309C17.3729 41.0056 17.8822 41.8136 18.513 42.5222L18.5051 42.5134V42.5099ZM25.998 40.13C26.5055 40.4056 26.9403 40.6918 27.3489 41.0111L27.3279 40.9954C26.4975 41.6462 25.5634 42.1526 24.5649 42.4933L24.4984 42.5134C25.1105 41.8213 25.6092 41.0366 25.9761 40.1886L25.998 40.1318V40.13ZM30.9851 32.9982H27.257C27.2302 31.1879 26.9178 29.3931 26.3313 27.6802L26.3672 27.8009C26.9853 27.4755 27.5704 27.0911 28.1144 26.653L28.0934 26.6687C29.8199 28.3286 30.8526 30.5814 30.9833 32.9728L30.9842 32.9973L30.9851 32.9982ZM14.9039 26.6696C15.4079 27.0791 15.974 27.4545 16.5742 27.7738L16.631 27.8018C16.0947 29.3479 15.7719 31.1302 15.7412 32.9842V32.9982H12.0123C12.138 30.5996 13.1704 28.3383 14.9004 26.6722L14.9039 26.6696ZM12.0132 33.9992H15.7412C15.7681 35.8095 16.0805 37.6043 16.6669 39.3172L16.631 39.1964C15.974 39.5456 15.4088 39.9209 14.8838 40.3444L14.9048 40.3286C13.1783 38.6688 12.1456 36.416 12.0149 34.0245L12.014 34L12.0132 33.9992Z" fill="#B7FAF4"/>
<defs>
<filter id="filter0_d_30_725" x="7.56494" y="0.637268" width="58.6204" height="72.7255" filterUnits="userSpaceOnUse" color-interpolation-filters="sRGB">
<feFlood flood-opacity="0" result="BackgroundImageFix"/>
<feColorMatrix in="SourceAlpha" type="matrix" values="0 0 0 0 0 0 0 0 0 0 0 0 0 0 0 0 0 0 127 0" result="hardAlpha"/>
<feOffset/>
<feGaussianBlur stdDeviation="3"/>
<feComposite in2="hardAlpha" operator="out"/>
<feColorMatrix type="matrix" values="0 0 0 0 0 0 0 0 0 0 0 0 0 0 0 0 0 0 0.15 0"/>
<feBlend mode="normal" in2="BackgroundImageFix" result="effect1_dropShadow_30_725"/>
<feBlend mode="normal" in="SourceGraphic" in2="effect1_dropShadow_30_725" result="shape"/>
</filter>
<filter id="filter1_d_30_725" x="0" y="9.95642" width="43.3064" height="53.7493" filterUnits="userSpaceOnUse" color-interpolation-filters="sRGB">
<feFlood flood-opacity="0" result="BackgroundImageFix"/>
<feColorMatrix in="SourceAlpha" type="matrix" values="0 0 0 0 0 0 0 0 0 0 0 0 0 0 0 0 0 0 127 0" result="hardAlpha"/>
<feOffset/>
<feGaussianBlur stdDeviation="2"/>
<feComposite in2="hardAlpha" operator="out"/>
<feColorMatrix type="matrix" values="0 0 0 0 0 0 0 0 0 0 0 0 0 0 0 0 0 0 0.15 0"/>
<feBlend mode="normal" in2="BackgroundImageFix" result="effect1_dropShadow_30_725"/>
<feBlend mode="normal" in="SourceGraphic" in2="effect1_dropShadow_30_725" result="shape"/>
</filter>
</defs>
</svg>
