<svg width="45" height="43" viewBox="0 0 45 43" fill="none" xmlns="http://www.w3.org/2000/svg">
<path d="M29.4246 12.635C29.4246 16.7561 26.3236 20.1011 22.3498 20.1011C18.3727 20.1011 15.125 16.7527 15.125 12.635C15.125 8.67048 18.2244 5.32373 22.1998 5.32373C26.1802 5.32373 29.4246 8.52068 29.4246 12.635ZM26.6747 12.7899C26.6747 10.2846 24.733 8.23536 22.3123 8.1736V8.17217H22.3123H22.3123H22.3123H22.3123H22.3123H22.3122H22.3122H22.3122H22.3121H22.3121H22.3121H22.312H22.312H22.3119H22.3119H22.3118H22.3118H22.3117H22.3116H22.3116H22.3115H22.3114H22.3113H22.3112H22.3112H22.3111H22.311H22.3109H22.3108H22.3107H22.3106H22.3104H22.3103H22.3102H22.3101H22.31H22.3098H22.3097H22.3096H22.3094H22.3093H22.3091H22.309H22.3088H22.3087H22.3085H22.3084H22.3082H22.308H22.3079H22.3077H22.3075H22.3073H22.3071H22.3069H22.3067H22.3065H22.3063H22.3061H22.3059H22.3057H22.3055H22.3053H22.3051H22.3048H22.3046H22.3044H22.3041H22.3039H22.3037H22.3034H22.3032H22.3029H22.3027H22.3024H22.3021H22.3019H22.3016H22.3013H22.3011H22.3008H22.3005H22.3002H22.2999H22.2996H22.2993H22.299H22.2987H22.2984H22.2981H22.2978H22.2975H22.2971H22.2968H22.2965H22.2962H22.2958H22.2955H22.2952H22.2948H22.2945H22.2941H22.2938H22.2934H22.293H22.2927H22.2923H22.2919H22.2915H22.2912H22.2908H22.2904H22.29H22.2896H22.2892H22.2888H22.2884H22.288H22.2876H22.2872H22.2868H22.2863H22.2859H22.2855H22.2851H22.2846H22.2842H22.2838H22.2833H22.2829H22.2824H22.282H22.2815H22.281H22.2806H22.2801H22.2796H22.2792H22.2787H22.2782H22.2777H22.2772H22.2767H22.2762H22.2757H22.2752H22.2747H22.2742H22.2737H22.2732H22.2727H22.2721H22.2716H22.2711H22.2705H22.27H22.2695H22.2689H22.2684H22.2678H22.2673H22.2667H22.2661H22.2656H22.265H22.2644H22.2639H22.2633H22.2627H22.2621H22.2615H22.2609H22.2603H22.2597H22.2591H22.2585H22.2579H22.2573H22.2567H22.2561H22.2555H22.2548H22.2542H22.2536H22.2529H22.2523H22.2516H22.251H22.2503H22.2497H22.249H22.2484H22.2477H22.247H22.2464H22.2457H22.245H22.2443H22.2437H22.243H22.2423H22.2416H22.2409H22.2402H22.2395H22.2388H22.2381H22.2373H22.2366H22.2359H22.2352H22.2344H22.2337H22.233H22.2322H22.2315H22.2307H22.23H22.2292H22.2285H22.2277H22.227H22.2262H22.2254H22.2246H22.2239H22.2231H22.2223H22.2215H22.2207H22.2199H22.2191H22.2183H22.2175H22.2167H22.2159H22.2151H22.2143H22.2134H22.2126H22.2118H22.211H22.2101H22.2093H22.2084H22.2076H22.2067H22.2059H22.205H22.2042H22.2033H22.2024H22.2016H22.2007H22.1998C19.8743 8.17217 17.8749 10.2489 17.8749 12.7899C17.8749 15.176 19.7242 17.2527 22.1998 17.2527C24.6668 17.2527 26.6747 15.3396 26.6747 12.7899Z" fill="white" stroke="#30364A" stroke-width="0.25"/>
<path d="M34.0499 15.5478V15.5479L34.0549 15.5477C37.9203 15.3941 41.6369 16.7755 44.4623 19.3853L44.8747 19.8112V32.0293H42.1247V21V20.9378L42.0752 20.9003C39.8038 19.18 36.9264 18.2405 34.0466 18.3962H34.0458C33.2392 18.3962 32.5444 18.3962 31.7509 18.51C32.272 17.6455 32.6707 16.6577 32.9479 15.5478H34.0499Z" fill="white" stroke="#30364A" stroke-width="0.25"/>
<path d="M35.4492 3.3794L35.4493 3.37935L35.446 3.37805C33.5077 2.60809 31.4222 3.46891 30.5769 5.24967C30.0156 4.44574 29.3425 3.88308 28.6674 3.45185C29.8546 1.38578 31.8844 0.210938 34.1999 0.210938C37.7252 0.210938 40.6747 3.24771 40.6747 7.05742C40.6747 10.7085 37.7288 13.749 34.0499 13.749C33.9185 13.749 33.7842 13.715 33.6311 13.6755L33.6241 13.6737C33.5156 13.6456 33.3971 13.615 33.2749 13.6014V12.7895V12.7856C33.2749 12.2253 33.2749 11.528 33.1613 10.8165C33.2758 10.8491 33.3961 10.8685 33.512 10.8805C33.7059 10.9005 33.8987 10.9005 34.0477 10.9005H34.0499C35.4553 10.9005 36.8472 9.936 37.4646 8.50112L37.4647 8.50119L37.4669 8.49534C38.2382 6.42407 37.3153 4.18245 35.4492 3.3794Z" fill="white" stroke="#30364A" stroke-width="0.25"/>
<path d="M10.9448 15.7037L10.9448 15.7038H10.9497H12.0517C12.3276 16.808 12.7236 17.7914 13.2407 18.6527C12.5499 18.5183 11.7528 18.3977 10.9531 18.3973C8.07147 18.2415 5.34537 19.1823 2.92756 20.8992L2.87493 20.9365V21.0011V32.0304H0.125V19.8123L0.536058 19.3877C3.36232 16.9313 7.07968 15.5502 10.9448 15.7037Z" fill="white" stroke="#30364A" stroke-width="0.25"/>
<path d="M5.35701 10.4026L5.35685 10.4023C3.44244 7.20822 4.47269 3.1 7.56691 1.12163C10.6235 -0.832676 14.5494 0.186914 16.4863 3.31283C15.8053 3.87784 15.0087 4.56932 14.4282 5.27294C13.7728 3.93931 12.4338 3.06022 10.9495 3.06022C8.92672 3.06022 7.22458 4.82416 7.22458 6.90334C7.22458 8.98253 8.92672 10.7465 10.9495 10.7465H10.9516C11.1006 10.7465 11.2934 10.7465 11.4873 10.7264C11.6007 10.7147 11.7182 10.6959 11.8304 10.6645C11.7245 11.2542 11.7245 11.9473 11.7245 12.6245V12.6355V13.486C11.4773 13.5933 11.2272 13.5949 10.9495 13.5949C8.59471 13.5949 6.53502 12.3797 5.35701 10.4026Z" fill="white" stroke="#30364A" stroke-width="0.25"/>
<path d="M34.5436 28.6603L34.5805 28.7175H34.6486H34.6736V40.3665C34.6736 41.6957 33.5259 42.8752 32.2488 42.8752H13.0499C11.6274 42.8752 10.625 41.7006 10.625 40.3665V28.6293L10.9 28.2033C13.8767 24.8253 18.1885 22.8319 22.645 22.9853L22.645 22.9856L22.6536 22.9853C27.1089 22.8319 31.2712 24.8243 34.2487 28.2033L34.5436 28.6603ZM31.6488 40.0268H31.7738V39.9018V29.6769V29.6263L31.7386 29.59C29.3166 27.0884 25.984 25.678 22.6464 25.8338C19.1678 25.8345 15.8354 27.0849 13.41 29.59L13.3748 29.6263V29.6769V39.9018V40.0268H13.4998H31.6488Z" fill="white" stroke="#30364A" stroke-width="0.25"/>
</svg>
