<svg width="63" height="62" viewBox="0 0 63 62" fill="none" xmlns="http://www.w3.org/2000/svg">
<path fill-rule="evenodd" clip-rule="evenodd" d="M27.5801 6.48709C21.9865 6.48709 16.622 8.70913 12.6667 12.6644C8.71148 16.6197 6.48943 21.9842 6.48943 27.5777C6.48943 33.1713 8.71148 38.5358 12.6667 42.4911C16.622 46.4464 21.9865 48.6684 27.5801 48.6684C33.1737 48.6684 38.5382 46.4464 42.4934 42.4911C46.4487 38.5358 48.6707 33.1713 48.6707 27.5777C48.6707 21.9842 46.4487 16.6197 42.4934 12.6644C38.5382 8.70913 33.1737 6.48709 27.5801 6.48709ZM6.2197e-08 27.5777C0.000374738 23.1798 1.05247 18.8458 3.06851 14.9372C5.08455 11.0286 8.00607 7.65873 11.5893 5.10885C15.1726 2.55897 19.3137 0.902962 23.6671 0.278998C28.0205 -0.344966 32.46 0.0812032 36.6153 1.52195C40.7705 2.9627 44.5209 5.37625 47.5537 8.56123C50.5864 11.7462 52.8135 15.6103 54.0492 19.831C55.2849 24.0518 55.4932 28.5068 54.657 32.8245C53.8207 37.1422 51.964 41.1973 49.2418 44.6514L61.0915 56.5011C61.6826 57.1131 62.0096 57.9327 62.0022 58.7835C61.9948 59.6342 61.6536 60.448 61.052 61.0496C60.4504 61.6512 59.6366 61.9925 58.7858 61.9999C57.9351 62.0073 57.1154 61.6802 56.5035 61.0892L44.6538 49.2395C40.5869 52.4452 35.6997 54.4413 30.5514 54.9992C25.403 55.557 20.2017 54.6542 15.5425 52.3941C10.8833 50.1339 6.95458 46.6076 4.2059 42.2189C1.45722 37.8301 -0.00034765 32.7562 6.2197e-08 27.5777ZM24.3354 16.2212C24.3354 15.3607 24.6772 14.5354 25.2857 13.9269C25.8942 13.3184 26.7195 12.9765 27.5801 12.9765C31.4526 12.9765 35.1665 14.5149 37.9047 17.2531C40.643 19.9914 42.1813 23.7053 42.1813 27.5777C42.1813 28.4383 41.8395 29.2636 41.231 29.8721C40.6225 30.4806 39.7971 30.8225 38.9366 30.8225C38.076 30.8225 37.2507 30.4806 36.6422 29.8721C36.0337 29.2636 35.6919 28.4383 35.6919 27.5777C35.6919 25.4264 34.8372 23.3631 33.316 21.8418C31.7947 20.3206 29.7315 19.466 27.5801 19.466C26.7195 19.466 25.8942 19.1241 25.2857 18.5156C24.6772 17.9071 24.3354 17.0818 24.3354 16.2212Z" fill="white"/>
</svg>
