<svg width="44" height="62" viewBox="0 0 44 62" fill="none" xmlns="http://www.w3.org/2000/svg">
<path d="M9.3 24.8C8.88891 24.8 8.49467 24.9634 8.20398 25.254C7.9133 25.5447 7.75 25.939 7.75 26.35C7.75 26.7611 7.9133 27.1554 8.20398 27.4461C8.49467 27.7367 8.88891 27.9 9.3 27.9H20.15C20.5611 27.9 20.9553 27.7367 21.246 27.4461C21.5367 27.1554 21.7 26.7611 21.7 26.35C21.7 25.939 21.5367 25.5447 21.246 25.254C20.9553 24.9634 20.5611 24.8 20.15 24.8H9.3ZM7.75 18.6C7.75 18.189 7.9133 17.7947 8.20398 17.504C8.49467 17.2134 8.88891 17.05 9.3 17.05H33.325C33.7361 17.05 34.1303 17.2134 34.421 17.504C34.7117 17.7947 34.875 18.189 34.875 18.6C34.875 19.0111 34.7117 19.4054 34.421 19.6961C34.1303 19.9867 33.7361 20.15 33.325 20.15H9.3C8.88891 20.15 8.49467 19.9867 8.20398 19.6961C7.9133 19.4054 7.75 19.0111 7.75 18.6Z" fill="white"/>
<path fill-rule="evenodd" clip-rule="evenodd" d="M7.75 37.2C7.75 36.789 7.9133 36.3947 8.20398 36.104C8.49467 35.8134 8.88891 35.65 9.3 35.65H15.5C15.9111 35.65 16.3053 35.8134 16.596 36.104C16.8867 36.3947 17.05 36.789 17.05 37.2V43.4C17.05 43.8111 16.8867 44.2054 16.596 44.4961C16.3053 44.7867 15.9111 44.95 15.5 44.95H9.3C8.88891 44.95 8.49467 44.7867 8.20398 44.4961C7.9133 44.2054 7.75 43.8111 7.75 43.4V37.2ZM10.85 41.85V38.75H13.95V41.85H10.85ZM27.9 41.85C29.1333 41.85 30.316 41.3601 31.188 40.4881C32.0601 39.6161 32.55 38.4333 32.55 37.2C32.55 35.9668 32.0601 34.784 31.188 33.912C30.316 33.04 29.1333 32.55 27.9 32.55C26.6667 32.55 25.484 33.04 24.612 33.912C23.7399 34.784 23.25 35.9668 23.25 37.2C23.25 38.4333 23.7399 39.6161 24.612 40.4881C25.484 41.3601 26.6667 41.85 27.9 41.85ZM27.9 38.75C28.1092 38.7596 28.3181 38.7267 28.5142 38.6533C28.7103 38.5799 28.8895 38.4675 29.041 38.323C29.1924 38.1784 29.313 38.0047 29.3955 37.8122C29.478 37.6198 29.5206 37.4126 29.5208 37.2032C29.521 36.9938 29.4788 36.7866 29.3967 36.594C29.3146 36.4013 29.1944 36.2274 29.0432 36.0825C28.892 35.9376 28.713 35.8249 28.5171 35.7511C28.3211 35.6773 28.1123 35.644 27.9031 35.6532C27.5044 35.6706 27.1278 35.8411 26.8517 36.1293C26.5756 36.4175 26.4212 36.801 26.4208 37.2001C26.4204 37.5992 26.574 37.9831 26.8495 38.2718C27.125 38.5605 27.5013 38.7318 27.9 38.75ZM18.6 48.3321C18.6 45.0523 24.7954 43.4 27.9 43.4C31.0047 43.4 37.2 45.0523 37.2 48.3321V54.25H18.6V48.3321ZM21.7853 48.3941C21.7556 48.4224 21.7271 48.4518 21.7 48.4825V51.15H34.1V48.484C34.0729 48.4523 34.0445 48.4218 34.0148 48.3926C33.7606 48.1446 33.2708 47.816 32.502 47.489C30.952 46.8302 29.0393 46.5 27.9 46.5C26.7608 46.5 24.8481 46.8302 23.2981 47.489C22.5293 47.8145 22.0395 48.1461 21.7853 48.3941Z" fill="white"/>
<path fill-rule="evenodd" clip-rule="evenodd" d="M10.85 4.65C10.85 3.41674 11.3399 2.234 12.212 1.36195C13.084 0.489909 14.2667 0 15.5 0H27.9C29.1333 0 30.316 0.489909 31.188 1.36195C32.0601 2.234 32.55 3.41674 32.55 4.65H38.75C39.9833 4.65 41.166 5.13991 42.038 6.01195C42.9101 6.884 43.4 8.06674 43.4 9.3V57.35C43.4 58.5833 42.9101 59.766 42.038 60.638C41.166 61.5101 39.9833 62 38.75 62H4.65C3.41674 62 2.234 61.5101 1.36195 60.638C0.489909 59.766 0 58.5833 0 57.35V9.3C0 8.06674 0.489909 6.884 1.36195 6.01195C2.234 5.13991 3.41674 4.65 4.65 4.65H10.85ZM27.9 12.4C29.1333 12.4 30.316 11.9101 31.188 11.038C32.0601 10.166 32.55 8.98326 32.55 7.75H38.75C39.1611 7.75 39.5553 7.9133 39.846 8.20398C40.1367 8.49467 40.3 8.88891 40.3 9.3V57.35C40.3 57.7611 40.1367 58.1553 39.846 58.446C39.5553 58.7367 39.1611 58.9 38.75 58.9H4.65C4.23891 58.9 3.84467 58.7367 3.55398 58.446C3.2633 58.1553 3.1 57.7611 3.1 57.35V9.3C3.1 8.88891 3.2633 8.49467 3.55398 8.20398C3.84467 7.9133 4.23891 7.75 4.65 7.75H10.85C10.85 8.98326 11.3399 10.166 12.212 11.038C13.084 11.9101 14.2667 12.4 15.5 12.4H27.9ZM15.5 3.1C15.0889 3.1 14.6947 3.2633 14.404 3.55398C14.1133 3.84467 13.95 4.23891 13.95 4.65V7.75C13.95 8.16109 14.1133 8.55533 14.404 8.84601C14.6947 9.1367 15.0889 9.3 15.5 9.3H27.9C28.3111 9.3 28.7053 9.1367 28.996 8.84601C29.2867 8.55533 29.45 8.16109 29.45 7.75V4.65C29.45 4.23891 29.2867 3.84467 28.996 3.55398C28.7053 3.2633 28.3111 3.1 27.9 3.1H15.5Z" fill="white"/>
</svg>
