<svg width="43" height="43" viewBox="0 0 43 43" fill="none" xmlns="http://www.w3.org/2000/svg">
<path d="M21.4975 0C16.1226 0 13.1365 1.43331 13.1365 1.43331V7.16657L8.92137 11.3817C8.21308 12.09 8.63949 13.2785 9.63803 13.3501C12.0472 13.5209 16.1286 13.7359 21.4975 13.7359C24.1324 13.7359 26.4568 13.6846 28.4252 13.6117H28.4049C28.6988 14.6758 28.7428 15.7933 28.5337 16.8772C28.3245 17.9611 27.8678 18.9821 27.1992 19.8604C26.5305 20.7388 25.668 21.4508 24.6789 21.9409C23.6898 22.431 22.6008 22.6861 21.4969 22.6861C20.393 22.6861 19.304 22.431 18.3149 21.9409C17.3258 21.4508 16.4633 20.7388 15.7946 19.8604C15.126 18.9821 14.6693 17.9611 14.4601 16.8772C14.251 15.7933 14.2951 14.6758 14.5889 13.6117C13.7051 13.5795 12.8928 13.5424 12.1571 13.5042C11.8563 14.8981 11.8713 16.3416 12.201 17.7289C12.5306 19.1162 13.1666 20.4122 14.0623 21.5217C14.9579 22.6313 16.0906 23.5263 17.3771 24.1412C18.6637 24.7561 20.0716 25.0752 21.4975 25.0752C22.9235 25.0752 24.3313 24.7561 25.6179 24.1412C26.9045 23.5263 28.0371 22.6313 28.9328 21.5217C29.8284 20.4122 30.4644 19.1162 30.7941 17.7289C31.1237 16.3416 31.1387 14.8981 30.8379 13.5042C31.6781 13.4603 32.5178 13.4085 33.357 13.3489C34.3555 13.2773 34.7819 12.09 34.0736 11.3817L29.8573 7.16657V1.43331C29.8573 1.43331 26.8724 0 21.4975 0Z" fill="white"/>
<path fill-rule="evenodd" clip-rule="evenodd" d="M21.8472 26.3283L29.6612 28.6539L36.3584 24.096C36.5379 23.9736 36.7474 23.9026 36.9644 23.8905C37.1813 23.8784 37.3974 23.9257 37.5894 24.0273C37.7815 24.129 37.9422 24.281 38.0542 24.4672C38.1662 24.6533 38.2254 24.8665 38.2252 25.0837V31.0559H35.8364V27.3412L31.0587 30.5925V40.6113C31.0587 41.5286 31.4039 42.3671 31.9712 43.0002H11.0353C11.6026 42.3671 11.9478 41.5286 11.9478 40.6113V30.5005L7.17011 27.3161V31.0559H4.78125V25.0837C4.78122 24.8675 4.83989 24.6553 4.95101 24.4698C5.06213 24.2843 5.22152 24.1324 5.41219 24.0304C5.60285 23.9284 5.81764 23.8801 6.03363 23.8905C6.24962 23.901 6.4587 23.97 6.63859 24.09L13.442 28.6252L21.1581 26.3283C21.27 26.2945 21.3863 26.2775 21.5032 26.2782C21.6024 26.2782 21.7015 26.2901 21.7983 26.3152L21.8078 26.3176C21.821 26.3213 21.8342 26.3241 21.8472 26.3283ZM22.6977 29.0743L28.6698 30.8516V40.6113H22.6977V29.0743ZM14.3367 30.8516L20.3088 29.0743V40.6113H14.3367V30.8516Z" fill="white"/>
<path d="M35.2006 35.201C35.6851 34.7165 36.3422 34.4443 37.0273 34.4443H39.4161C40.1013 34.4443 40.7583 34.7165 41.2428 35.201C41.7273 35.6854 41.9994 36.3425 41.9994 37.0276V41.9998H37.0273C36.3422 41.9998 35.6851 41.7276 35.2006 41.2431C34.7162 40.7587 34.444 40.1016 34.444 39.4165V37.0276C34.444 36.3425 34.7162 35.6854 35.2006 35.201ZM1.75663 35.201C2.24109 34.7165 2.89816 34.4443 3.58329 34.4443H5.97214C6.65727 34.4443 7.31434 34.7165 7.7988 35.201C8.28326 35.6854 8.55543 36.3425 8.55543 37.0276V39.4165C8.55543 40.1016 8.28326 40.7587 7.7988 41.2431C7.31434 41.7276 6.65727 41.9998 5.97214 41.9998H1V37.0276C1 36.3425 1.27217 35.6854 1.75663 35.201Z" stroke="white" stroke-width="2"/>
</svg>
