<svg width="41" height="43" viewBox="0 0 41 43" fill="none" xmlns="http://www.w3.org/2000/svg">
<path d="M17.2632 0L33.0115 4.902C33.4507 5.03862 33.8346 5.31154 34.1071 5.68092C34.3796 6.0503 34.5265 6.49681 34.5263 6.95525V10.75H38.8421C39.4144 10.75 39.9633 10.9765 40.368 11.3797C40.7727 11.7829 41 12.3298 41 12.9V17.2H12.9474V12.9C12.9474 12.3298 13.1747 11.7829 13.5794 11.3797C13.9841 10.9765 14.533 10.75 15.1053 10.75H31.3243V7.62903L17.2632 3.12097L3.48048 7.62903V24.621C3.48017 25.9373 4.28979 27.9478 4.87267 29.129C5.45554 30.3103 5.9146 30.8167 6.96095 31.6203L8.00509 32.5968L17.2632 38.8387L27.1477 32.2521L15.1053 32.25C14.533 32.25 13.9841 32.0235 13.5794 31.6203C13.1747 31.2171 12.9474 30.6702 12.9474 30.1V21.5H41V30.1C41 30.6702 40.7727 31.2171 40.368 31.6203C39.9633 32.0235 39.4144 32.25 38.8421 32.25L31.8937 32.2521C31.0586 33.3486 30.0444 34.3161 28.8726 35.1116L17.2632 43L5.65368 35.1138C3.91123 33.9301 2.48536 32.3403 1.50004 30.4825C0.514718 28.6248 -0.000218428 26.5553 6.95055e-08 24.4541V6.95525C0.000260256 6.49717 0.147355 6.05115 0.419845 5.6822C0.692334 5.31325 1.07597 5.04066 1.51484 4.90415L17.2632 0Z" fill="white"/>
</svg>
