<svg width="62" height="62" viewBox="0 0 62 62" fill="none" xmlns="http://www.w3.org/2000/svg">
<path fill-rule="evenodd" clip-rule="evenodd" d="M43.919 8.61111C44.6041 8.61111 45.2612 8.33894 45.7457 7.85447C46.2302 7.37 46.5023 6.71292 46.5023 6.02778C46.5023 5.34264 46.2302 4.68555 45.7457 4.20109C45.2612 3.71662 44.6041 3.44444 43.919 3.44444C43.2339 3.44444 42.5768 3.71662 42.0923 4.20109C41.6078 4.68555 41.3357 5.34264 41.3357 6.02778C41.3357 6.71292 41.6078 7.37 42.0923 7.85447C42.5768 8.33894 43.2339 8.61111 43.919 8.61111ZM43.919 12.0556C44.7106 12.0556 45.4944 11.8996 46.2257 11.5967C46.9571 11.2938 47.6216 10.8498 48.1813 10.2901C48.741 9.73033 49.185 9.06583 49.4879 8.33451C49.7909 7.60318 49.9468 6.81936 49.9468 6.02778C49.9468 5.2362 49.7909 4.45237 49.4879 3.72105C49.185 2.98972 48.741 2.32523 48.1813 1.7655C47.6216 1.20576 46.9571 0.761762 46.2257 0.458838C45.4944 0.155913 44.7106 -1.17954e-08 43.919 0C42.3203 2.3822e-08 40.7871 0.635068 39.6567 1.7655C38.5263 2.89592 37.8912 4.42911 37.8912 6.02778C37.8912 7.62644 38.5263 9.15963 39.6567 10.2901C40.7871 11.4205 42.3203 12.0556 43.919 12.0556ZM22.3912 17.2222C21.4777 17.2222 20.6016 17.5851 19.9556 18.2311C19.3097 18.877 18.9468 19.7531 18.9468 20.6667C18.9468 21.5802 19.3097 22.4563 19.9556 23.1023C20.6016 23.7482 21.4777 24.1111 22.3912 24.1111H34.4468V58.5556C34.4468 59.4691 34.8097 60.3452 35.4556 60.9911C36.1016 61.6371 36.9777 62 37.8912 62C38.8047 62 39.6809 61.6371 40.3268 60.9911C40.9728 60.3452 41.3357 59.4691 41.3357 58.5556V43.0556H46.5023V58.5556C46.5023 59.4691 46.8652 60.3452 47.5112 60.9911C48.1571 61.6371 49.0333 62 49.9468 62C50.8603 62 51.7364 61.6371 52.3824 60.9911C53.0283 60.3452 53.3912 59.4691 53.3912 58.5556V37.7459C55.9402 37.3072 58.2321 35.9288 59.8145 33.8829C61.3969 31.8369 62.1547 29.272 61.9385 26.6946C61.7222 24.1172 60.5475 21.7145 58.6463 19.9608C56.745 18.2072 54.2555 17.23 51.669 17.2222H22.3912ZM56.8357 27.5556C56.8357 26.642 56.4728 25.7659 55.8268 25.12C55.1809 24.474 54.3047 24.1111 53.3912 24.1111V31C54.3047 31 55.1809 30.6371 55.8268 29.9911C56.4728 29.3452 56.8357 28.4691 56.8357 27.5556Z" fill="white"/>
<path fill-rule="evenodd" clip-rule="evenodd" d="M0.00244141 44.7777C0.00244141 43.8641 0.365337 42.988 1.0113 42.3421C1.65725 41.6961 2.53336 41.3332 3.44689 41.3332H25.8358C26.7493 41.3332 27.6254 41.6961 28.2714 42.3421C28.9173 42.988 29.2802 43.8641 29.2802 44.7777V58.5555C29.2802 59.469 28.9173 60.3451 28.2714 60.991C27.6254 61.637 26.7493 61.9999 25.8358 61.9999H3.44689C2.53336 61.9999 1.65725 61.637 1.0113 60.991C0.365337 60.3451 0.00244141 59.469 0.00244141 58.5555V44.7777ZM6.89133 56.8332V46.4999H10.3358V56.8332H6.89133ZM18.9469 46.4999V56.8332H22.3913V46.4999H18.9469ZM8.61355 37.8888C8.61355 36.9753 8.97645 36.0991 9.62241 35.4532C10.2684 34.8072 11.1445 34.4443 12.058 34.4443H17.2247C18.1382 34.4443 19.0143 34.8072 19.6603 35.4532C20.3062 36.0991 20.6691 36.9753 20.6691 37.8888V41.3332H17.2247V37.8888H12.058V41.3332H8.61355V37.8888Z" fill="white"/>
</svg>
