<svg width="43" height="43" viewBox="0 0 43 43" fill="none" xmlns="http://www.w3.org/2000/svg">
<path d="M7.87773 9.62461C7.48301 9.71699 7.73496 9.7002 7.40742 9.74219C6.00488 10.0445 7.04629 10.3133 7.87773 9.62461ZM32.5439 10.1873C32.6447 10.1201 32.9975 9.77578 31.8973 9.43984C31.9645 9.78418 31.6705 9.75059 31.6705 9.94375C32.4852 10.6828 32.8211 11.9678 33.8625 12.2365C34.0641 11.3127 32.9387 10.8592 32.5439 10.1873ZM7.13027 9.35586C7.25625 10.1033 7.81894 8.56641 7.82734 8.02051C7.60898 8.14648 7.39063 8.27246 7.16387 8.37324C7.69297 8.64199 7.23105 8.92754 6.65996 9.35586C5.50098 10.8004 7.74336 8.23047 7.13027 9.35586ZM21.5 0C9.62461 0 0 9.62461 0 21.5C0 33.367 9.62461 43 21.5 43C33.3754 43 43 33.367 43 21.5C43 9.62461 33.3754 0 21.5 0ZM22.0711 7.20586L22.1719 7.23945C21.7687 7.76016 24.2715 9.28027 22.4742 9.40625C20.7945 9.88496 23.1797 8.96953 21.8779 9.1291C22.5666 8.17168 21.332 8.15488 22.0711 7.20586ZM11.8754 8.5832C11.2707 8.0793 9.37266 9.27188 10.0361 8.98633C11.6822 8.33965 10.1453 9.05352 10.5316 9.82617C10.1789 10.5568 10.4141 9.10391 9.54062 9.96895C8.91074 10.1117 7.36543 11.5395 7.55859 11.1027C7.5082 11.783 5.71934 12.5893 5.47578 13.723C4.88789 15.2936 5.33301 13.6643 5.22383 13.0512C4.38398 11.9846 2.85547 14.8568 3.30898 15.9906C4.07324 14.6469 4.01445 15.8479 3.46016 16.4441C4.02285 17.4771 2.94785 18.8209 4.01445 19.5852C4.48477 19.6943 5.42539 18.0063 5.01387 19.7615C5.29941 18.2414 5.80332 20.1227 6.61797 19.7027C6.66836 20.5006 7.16387 20.1311 7.27305 21.0969C8.63359 20.9961 9.87656 23.2973 8.25566 23.734C8.49922 23.6668 8.97793 24.0951 9.53223 23.7676C10.4729 24.515 12.9504 24.6074 13.0176 26.4551C11.3127 27.2697 12.5977 29.5037 11.1195 30.3016C9.42305 30.0496 10.54 32.3928 9.82617 32.124C10.1117 33.8121 8.11289 31.9057 8.88555 32.8379C10.3049 33.7113 8.26406 33.535 8.90234 34.1732C8.18848 34.0221 9.34746 35.5002 9.54062 36.0461C10.5652 37.709 8.65879 35.6766 8.09609 35.1223C7.55859 34.0473 6.29043 31.9896 5.9377 30.3016C5.73613 27.8492 3.83809 26.2031 3.40137 23.8096C2.96465 22.4742 4.60234 20.3326 3.72051 19.5852C2.95625 18.9889 3.26699 16.948 2.81348 15.873C3.94727 10.96 7.55019 6.81953 11.8754 4.36719C11.4303 4.69473 14.4201 3.51895 14.0758 3.80449C13.9834 4.01445 15.8227 3.00664 16.9312 2.85547C16.8137 2.87227 14.0506 3.86328 14.8148 3.72891C13.6307 4.3084 14.6973 3.98086 15.2852 3.68691C14.1094 4.55195 13.2023 4.3084 11.867 5.07266C10.5232 5.42539 10.8004 6.81953 9.84297 7.5166C10.4057 7.61738 11.8166 6.06367 12.6396 5.51777C14.5293 4.60234 11.6822 7.18066 13.4795 6.07207C12.8748 6.63477 13.0008 7.5334 12.6312 7.78535C12.4465 7.73496 13.3619 8.22207 11.8754 8.5832ZM14.8148 4.71992C14.6217 4.98027 14.3529 5.54297 14.1934 5.19863C13.975 5.30781 13.891 5.77813 13.4795 5.4002C13.723 5.22383 13.975 4.80391 13.4963 5.06426C13.7146 4.8291 15.6631 4.16563 15.5539 3.91367C15.8982 3.69531 15.8646 3.58613 15.4699 3.72051C15.2684 3.65332 15.9486 3.08223 16.8557 3.00664C16.9816 3.00664 17.032 3.09063 16.8053 3.06543C15.4363 3.48535 16.0242 3.36777 16.948 3.06543C16.5953 3.26699 16.3518 3.32578 16.293 3.41816C17.2168 3.08223 16.2426 3.66172 16.4525 3.61973C16.1922 3.7541 16.4945 3.79609 15.9906 3.98926C16.083 3.91367 15.1676 4.53516 15.7135 4.35039C15.1844 4.8543 14.9492 4.8627 14.8148 4.71992ZM15.6211 5.9209C15.6379 5.11465 16.7969 4.60234 16.6541 4.56035C18.0818 3.88848 16.1586 4.58555 17.284 3.98086C17.7039 3.93887 18.5941 2.59512 19.8287 2.51113C21.1893 2.09961 20.5594 2.53633 21.5672 2.15L21.3656 2.31797C21.1893 2.34316 21.4076 2.65391 20.7693 3.12422C20.7021 3.85488 19.5516 3.51895 20.1227 4.3C19.7531 3.7709 19.1988 4.2832 19.8959 4.33359C19.1484 4.90469 17.41 5.00547 16.5785 5.95449C16.041 6.72715 15.5455 6.48359 15.6211 5.9209ZM21.5924 8.6084C21.0213 9.98574 20.467 8.40684 21.4748 8.15488C21.7268 8.28926 21.8275 8.33125 21.5924 8.6084ZM19.4424 5.85371C19.2744 5.23223 19.4088 5.55977 20.4082 5.26582C21.0969 5.76133 19.7951 6.08887 19.4424 5.85371ZM35.0803 30.5031C34.2908 29.1426 36.0377 27.8828 36.6256 26.7406C36.55 28.076 36.382 29.3945 35.0803 30.5031ZM38.0533 14.9576C37.1967 15.0248 36.424 15.2264 35.6514 14.7393C33.8709 12.7908 35.9789 16.9396 36.5668 15.2432C38.6832 16.0494 36.5332 19.5264 35.1979 19.1652C34.4504 17.5527 33.5266 15.7807 31.8973 14.9912C33.1486 16.377 33.7701 18.0818 35.1139 19.3332C35.2062 21.0801 36.9783 18.6949 36.8691 20.0471C37.0371 22.3734 34.2404 23.7676 34.7275 26.1023C35.7689 28.2271 32.7203 28.6135 33.0646 30.5199C31.8385 31.8889 30.5283 33.7365 28.3279 33.4426C28.3279 32.2836 27.74 31.301 27.6057 30.1084C26.4131 28.5967 28.8654 26.9758 27.3453 25.3969C25.59 25.0021 27.7064 22.5834 25.9008 22.8102C24.8174 21.7268 23.2301 22.7766 21.6764 22.785C19.7279 22.9697 17.7207 20.3914 18.5857 18.5689C17.8971 16.6709 20.7693 16.1166 20.8449 14.4453C22.2223 13.2947 24.1791 13.4375 26.0436 13.1687C25.9092 14.5041 27.3201 14.5125 28.3867 14.9576C28.983 13.5131 30.8391 15.1928 32.1072 14.2773C32.5439 12.1441 30.8727 13.4291 29.9152 12.7488C28.7563 11.0523 32.3928 11.8754 32.0148 10.9852C30.6039 10.9768 31.4018 9.24668 30.4023 10.2125C31.301 10.3721 30.2428 11.0775 30.268 10.2713C28.9074 9.87656 30.2176 11.8166 29.5289 12.0014C28.4791 11.5646 28.9746 12.4969 29.0838 12.6396C28.6303 13.6223 28.076 11.1951 26.791 11.2623C25.5145 10.0949 26.2871 11.7914 27.3957 12.0686C27.1605 12.1357 27.5301 13.1016 27.2361 12.69C26.3207 11.4303 24.5822 10.5904 23.5492 12.1357C23.44 13.5803 20.5006 13.9918 20.9709 12.3037C20.2822 10.5568 23.1041 12.2533 22.8438 10.8592C21.0297 9.6582 23.3393 10.0445 23.9523 8.91914C25.3465 8.96113 24.0111 7.77695 24.6662 7.43262C24.599 8.71758 25.7328 8.47402 26.6314 8.23047C26.4131 7.49141 27.1689 7.5166 26.707 6.90352C28.7898 6.07207 25.1197 7.28984 25.8588 5.46738C24.9602 4.8459 25.4809 6.83633 25.8588 7.04629C25.884 7.65938 25.3633 8.41523 24.6494 7.13027C23.608 7.81055 23.7172 6.4416 23.65 6.58437C23.5324 6.05527 24.4395 6.03008 24.4479 5.10625C24.3723 4.51836 24.3891 4.20762 24.809 4.17402C24.8426 4.25801 26.5307 4.2832 27.127 4.98027C25.4977 4.65273 26.8834 5.24902 27.6141 5.58496C26.833 4.97188 27.9248 5.58496 27.2865 4.88789C27.5385 4.93828 26.5895 3.93047 27.5637 4.8123C27.0346 4.18242 28.5967 4.36719 27.6729 3.89688C29.025 4.2748 28.2271 3.93047 27.4293 3.58613C25.2289 2.27598 31.3178 5.3582 28.8318 3.98926C30.4191 4.33359 25.4389 2.76309 27.7064 3.45176C26.8414 3.07383 27.6812 3.28379 28.4623 3.52734C27.0598 3.09063 24.9602 2.27598 25.0441 2.24238C25.5313 2.27598 26.01 2.38516 26.4719 2.51953C27.908 2.94785 26.0604 2.41875 26.4551 2.42715C31.3934 3.69531 35.7186 7.0043 38.3473 11.3295C38.9604 11.9762 40.6316 16.251 39.7582 14.3529C40.1529 15.8646 40.2117 17.4939 40.4217 19.0393C39.985 18.5521 39.4979 16.7549 39.0779 15.7555C38.9016 16.1418 38.7 15.2096 38.0533 14.9576Z" fill="white"/>
</svg>
