<svg width="129" height="26" viewBox="0 0 129 26" fill="none" xmlns="http://www.w3.org/2000/svg">
<path d="M11.6204 2.92705C11.9197 2.00574 13.2231 2.00574 13.5225 2.92705L15.1694 7.99566C15.3033 8.40768 15.6872 8.68664 16.1204 8.68664H21.4499C22.4186 8.68664 22.8214 9.92626 22.0377 10.4957L17.7261 13.6282C17.3756 13.8829 17.2289 14.3342 17.3628 14.7463L19.0097 19.8149C19.309 20.7362 18.2545 21.5023 17.4708 20.9329L13.1592 17.8003C12.8087 17.5457 12.3341 17.5457 11.9836 17.8003L7.67203 20.9329C6.88831 21.5023 5.83383 20.7362 6.13318 19.8149L7.78008 14.7463C7.91395 14.3342 7.76729 13.8829 7.4168 13.6282L3.10519 10.4957C2.32147 9.92626 2.72425 8.68664 3.69297 8.68664H9.02242C9.45565 8.68664 9.83961 8.40768 9.97348 7.99566L11.6204 2.92705Z" fill="#EBB855"/>
<path d="M37.5547 2.73807C37.8648 1.83984 39.1351 1.83984 39.4452 2.73807L41.2663 8.01297C41.4054 8.41613 41.785 8.68664 42.2115 8.68664H47.9693C48.9527 8.68664 49.3455 9.95706 48.5338 10.5121L43.982 13.6246C43.6101 13.879 43.4542 14.3506 43.6012 14.7764L45.3641 19.8829C45.6785 20.7936 44.6497 21.5785 43.8544 21.0346L39.0644 17.7593C38.7241 17.5266 38.2758 17.5265 37.9355 17.7593L33.1456 21.0346C32.3502 21.5785 31.3214 20.7936 31.6359 19.8829L33.3987 14.7764C33.5458 14.3506 33.3898 13.879 33.0179 13.6246L28.4661 10.5121C27.6544 9.95706 28.0473 8.68664 29.0306 8.68664H34.7884C35.2149 8.68664 35.5945 8.41613 35.7337 8.01297L37.5547 2.73807Z" fill="#EBB855"/>
<path d="M63.4775 2.92705C63.7769 2.00574 65.0803 2.00574 65.3797 2.92705L67.0266 7.99566C67.1604 8.40768 67.5444 8.68664 67.9776 8.68664H73.3071C74.2758 8.68664 74.6786 9.92626 73.8948 10.4957L69.5832 13.6282C69.2327 13.8829 69.0861 14.3342 69.22 14.7463L70.8668 19.8149C71.1662 20.7362 70.1117 21.5023 69.328 20.9329L65.0164 17.8003C64.6659 17.5457 64.1913 17.5457 63.8408 17.8003L59.5292 20.9329C58.7455 21.5023 57.691 20.7362 57.9904 19.8149L59.6373 14.7463C59.7711 14.3342 59.6245 13.8829 59.274 13.6282L54.9624 10.4957C54.1787 9.92626 54.5814 8.68664 55.5502 8.68664H60.8796C61.3128 8.68664 61.6968 8.40768 61.8307 7.99566L63.4775 2.92705Z" fill="#EBB855"/>
<path d="M89.4119 2.73807C89.722 1.83984 90.9923 1.83984 91.3024 2.73807L93.1234 8.01297C93.2626 8.41613 93.6422 8.68664 94.0687 8.68664H99.8265C100.81 8.68664 101.203 9.95706 100.391 10.5121L95.8392 13.6246C95.4673 13.879 95.3113 14.3506 95.4584 14.7764L97.2212 19.8829C97.5357 20.7936 96.5069 21.5785 95.7115 21.0346L90.9216 17.7593C90.5813 17.5266 90.133 17.5265 89.7927 17.7593L85.0028 21.0346C84.2074 21.5785 83.1786 20.7936 83.493 19.8829L85.2559 14.7764C85.4029 14.3506 85.247 13.879 84.8751 13.6246L80.3233 10.5121C79.5116 9.95706 79.9044 8.68664 80.8878 8.68664H86.6456C87.0721 8.68664 87.4517 8.41613 87.5908 8.01297L89.4119 2.73807Z" fill="#EBB855"/>
<path d="M115.335 2.92705C115.634 2.00574 116.937 2.00574 117.237 2.92705L118.884 7.99566C119.017 8.40768 119.401 8.68664 119.835 8.68664H125.164C126.133 8.68664 126.536 9.92626 125.752 10.4957L121.44 13.6282C121.09 13.8829 120.943 14.3342 121.077 14.7463L122.724 19.8149C123.023 20.7362 121.969 21.5023 121.185 20.9329L116.873 17.8003C116.523 17.5457 116.048 17.5457 115.698 17.8003L111.386 20.9329C110.603 21.5023 109.548 20.7362 109.847 19.8149L111.494 14.7463C111.628 14.3342 111.482 13.8829 111.131 13.6282L106.819 10.4957C106.036 9.92626 106.438 8.68664 107.407 8.68664H112.737C113.17 8.68664 113.554 8.40768 113.688 7.99566L115.335 2.92705Z" fill="#EBB855"/>
</svg>
