<svg width="20" height="18" viewBox="0 0 20 18" fill="none" xmlns="http://www.w3.org/2000/svg">
<path d="M9.21607 15.9593L9.21462 15.958C6.61966 13.6498 4.54731 11.8014 3.112 10.0789C1.68704 8.36884 1 6.90904 1 5.3951C1 2.93556 2.95284 1 5.5 1C6.94478 1 8.34274 1.66486 9.24741 2.69881L10 3.55896L10.7526 2.69881C11.6573 1.66486 13.0552 1 14.5 1C17.0472 1 19 2.93556 19 5.3951C19 6.90904 18.313 8.36884 16.888 10.0789C15.4527 11.8014 13.3803 13.6498 10.7854 15.958L10.7839 15.9593L10 16.6593L9.21607 15.9593Z" stroke="#FB4C4C" stroke-width="2"/>
</svg>
